<svg width="20" height="20" viewBox="0 0 20 20" fill="none" xmlns="http://www.w3.org/2000/svg">
<path d="M8.18728 15.8793L3.44677 17.0957C3.119 17.1798 2.821 16.8818 2.90511 16.554L4.12146 11.8134C4.14127 11.7361 4.18147 11.6657 4.23784 11.6093L13.0837 2.76299C13.2575 2.58919 13.5393 2.58919 13.7131 2.76299L17.2372 6.28719C17.411 6.46099 17.411 6.74278 17.2372 6.91658L8.39135 15.7629C8.33498 15.8192 8.2645 15.8594 8.18728 15.8793Z" fill="#42445A"/>
<path fill-rule="evenodd" clip-rule="evenodd" d="M14.1851 2.29068L17.7092 5.81489C18.1437 6.24938 18.1437 6.95386 17.7092 7.38836L8.86336 16.2346C8.72244 16.3756 8.54624 16.4761 8.35319 16.5256L3.61268 17.7421C2.79326 17.9523 2.04826 17.2073 2.25852 16.3879L3.47487 11.6472C3.52441 11.4541 3.62489 11.2779 3.76582 11.137L12.6117 2.2907C13.0462 1.8562 13.7506 1.8562 14.1851 2.29068ZM13.3984 3.39212L4.75291 12.038L3.64517 16.3554L7.96239 15.2475L16.6079 6.60163L13.3984 3.39212Z" fill="#42445A"/>
<path fill-rule="evenodd" clip-rule="evenodd" d="M13.8703 6.12911C14.131 6.38979 14.131 6.81246 13.8704 7.07316L8.5302 12.4136C8.26952 12.6743 7.84685 12.6743 7.58615 12.4136C7.32546 12.1529 7.32545 11.7302 7.58614 11.4695L12.9263 6.12912C13.187 5.86842 13.6096 5.86842 13.8703 6.12911Z" fill="white"/>
<path fill-rule="evenodd" clip-rule="evenodd" d="M5.95528 13.1018C6.21598 12.8411 6.63864 12.8411 6.89934 13.1018L7.7894 13.9918C8.05009 14.2525 8.05009 14.6752 7.7894 14.9359C7.5287 15.1966 7.10604 15.1966 6.84534 14.9359L5.95528 14.0458C5.69459 13.7851 5.69459 13.3625 5.95528 13.1018Z" fill="#42445A"/>
<path fill-rule="evenodd" clip-rule="evenodd" d="M15.301 0.195512C15.5617 -0.0651779 15.9844 -0.0651695 16.245 0.19553L19.8051 3.7558C20.0658 4.0165 20.0658 4.43917 19.8051 4.69986C19.5444 4.96055 19.1218 4.96054 18.8611 4.69984L15.301 1.13957C15.0403 0.878871 15.0403 0.456201 15.301 0.195512Z" fill="#42445A"/>
</svg>
